<svg width="17" height="16" viewBox="0 0 17 16" fill="none" xmlns="http://www.w3.org/2000/svg">
<path fill-rule="evenodd" clip-rule="evenodd" d="M4.12224 4.2501H15.6279H15.628C15.6608 4.25014 16.513 4.25118 16.513 5.1001L15.6279 10.2001C15.5492 10.6175 15.2482 11.0501 14.7997 11.0501H5.89234L5.97648 12.1538C6.0377 12.4348 6.297 12.7501 6.59281 12.7501H14.3004H14.3947C14.428 12.7501 14.4603 12.7547 14.4913 12.7632C15.1332 12.8524 15.628 13.3843 15.628 14.0251C15.628 14.7281 15.0324 15.3001 14.3004 15.3001C13.5683 15.3001 12.9728 14.7282 12.9728 14.0251C12.9728 13.8762 12.9995 13.7331 13.0486 13.6001H7.58666C7.63574 13.7331 7.66247 13.8761 7.66247 14.0251C7.66247 14.7282 7.06692 15.3001 6.33489 15.3001C5.60286 15.3001 5.00731 14.7281 5.00731 14.0251C5.00731 13.6157 5.20927 13.2507 5.52254 13.0173C5.3573 12.8079 5.23757 12.5626 5.18396 12.317L4.83786 10.733L2.35213 1.7001H0.987047C0.763311 1.7001 0.582031 1.46058 0.582031 1.24335C0.582031 1.02611 0.763311 0.850098 0.987047 0.850098H2.84927C3.03558 0.850098 3.19788 0.973641 3.24252 1.14935L4.12224 4.2501Z" fill="#282F36" fill-opacity="0.3"/>
</svg>
