<svg width="33" height="33" viewBox="0 0 33 33" fill="none" xmlns="http://www.w3.org/2000/svg">
<path d="M32.5 16.5C32.5 25.3366 25.3366 32.5 16.5 32.5C7.66344 32.5 0.5 25.3366 0.5 16.5C0.5 7.66344 7.66344 0.5 16.5 0.5C25.3366 0.5 32.5 7.66344 32.5 16.5Z" stroke="#282F36" stroke-opacity="0.15"/>
<path d="M21.9963 12.9997L21.9963 12.9997C23.3263 14.3171 23.3344 16.4534 22.0214 17.7802L16 22.9042L9.97853 17.7802C8.66562 16.4534 8.67375 14.317 10.0037 12.9996L9.29991 12.2892L10.0037 12.9996C10.6547 12.3547 11.5178 12 12.4431 12C13.3338 12 14.081 12.3292 14.7507 12.9876L15.271 13.5417L15.9999 14.318L16.7289 13.5417L17.2492 12.9877C17.9193 12.3292 18.6663 12 19.5571 12C20.4824 12 21.3451 12.3547 21.9963 12.9997Z" stroke="#282F36" stroke-opacity="0.3" stroke-width="2"/>
</svg>
