<svg width="46" height="46" viewBox="0 0 46 46" fill="none" xmlns="http://www.w3.org/2000/svg">
<g filter="url(#filter0_d_61_1910)">
<path fill-rule="evenodd" clip-rule="evenodd" d="M23 40C33.4934 40 42 31.4934 42 21C42 10.5066 33.4934 2 23 2C12.5066 2 4 10.5066 4 21C4 31.4934 12.5066 40 23 40ZM19.4006 27.4382C18.8502 28.0574 18.906 29.0055 19.5252 29.5559C20.1444 30.1063 21.0925 30.0505 21.6429 29.4313L28.2516 21.9965C28.7567 21.4282 28.7567 20.5718 28.2516 20.0035L21.6429 12.5687C21.0925 11.9495 20.1444 11.8937 19.5252 12.4441C18.906 12.9945 18.8502 13.9426 19.4006 14.5618L25.1235 21L19.4006 27.4382Z" fill="white" fill-opacity="0.86"/>
</g>
<defs>
<filter id="filter0_d_61_1910" x="0" y="0" width="46" height="46" filterUnits="userSpaceOnUse" color-interpolation-filters="sRGB">
<feFlood flood-opacity="0" result="BackgroundImageFix"/>
<feColorMatrix in="SourceAlpha" type="matrix" values="0 0 0 0 0 0 0 0 0 0 0 0 0 0 0 0 0 0 127 0" result="hardAlpha"/>
<feOffset dy="2"/>
<feGaussianBlur stdDeviation="2"/>
<feColorMatrix type="matrix" values="0 0 0 0 0 0 0 0 0 0 0 0 0 0 0 0 0 0 0.09 0"/>
<feBlend mode="normal" in2="BackgroundImageFix" result="effect1_dropShadow_61_1910"/>
<feBlend mode="normal" in="SourceGraphic" in2="effect1_dropShadow_61_1910" result="shape"/>
</filter>
</defs>
</svg>
